<svg width="42" height="42" viewBox="0 0 42 42" fill="none" xmlns="http://www.w3.org/2000/svg">
<path d="M15.75 36.75H26.25M15.75 36.75V28M15.75 36.75H6.3C6.02152 36.75 5.75445 36.6394 5.55754 36.4425C5.36062 36.2455 5.25 35.9785 5.25 35.7V29.05C5.25 28.7715 5.36062 28.5045 5.55754 28.3075C5.75445 28.1106 6.02152 28 6.3 28H15.75M26.25 36.75V15.75M26.25 36.75H35.7C35.9785 36.75 36.2455 36.6394 36.4425 36.4425C36.6394 36.2455 36.75 35.9785 36.75 35.7V6.3C36.75 6.02152 36.6394 5.75445 36.4425 5.55754C36.2455 5.36062 35.9785 5.25 35.7 5.25H27.3C27.0215 5.25 26.7545 5.36062 26.5575 5.55754C26.3606 5.75445 26.25 6.02152 26.25 6.3V15.75M15.75 28V16.8C15.75 16.5215 15.8606 16.2545 16.0575 16.0575C16.2545 15.8606 16.5215 15.75 16.8 15.75H26.25" stroke="#F30606" stroke-width="1.25"/>
</svg>
